<svg id="SvgjsSvg1079" width="674" height="464" xmlns="http://www.w3.org/2000/svg" version="1.1" xmlns:xlink="http://www.w3.org/1999/xlink" xmlns:svgjs="http://svgjs.com/svgjs"><defs id="SvgjsDefs1080"><pattern patternUnits="userSpaceOnUse" id="pattern_mark_0" width="300" height="300"><text x="150" y="100" fill="rgba(229,229,229,0.8)" font-size="18" transform="rotate(-45, 150, 150)" style="dominant-baseline: middle; text-anchor: middle;"></text></pattern><pattern patternUnits="userSpaceOnUse" id="pattern_mark_1" width="300" height="300"><text x="150" y="200" fill="rgba(229,229,229,0.8)" font-size="18" transform="rotate(-45, 150, 150)" style="dominant-baseline: middle; text-anchor: middle;"></text></pattern><marker id="SvgjsMarker1110" markerWidth="20" markerHeight="16" refX="13" refY="8" viewBox="0 0 20 16" orient="auto" markerUnits="userSpaceOnUse" stroke-dasharray="0,0"><path id="SvgjsPath1111" d="M0,0 L20,8 L0,16 L0,0" fill="#6fbef2" stroke="#6fbef2" stroke-width="1"></path></marker><marker id="SvgjsMarker1114" markerWidth="20" markerHeight="16" refX="13" refY="8" viewBox="0 0 20 16" orient="auto" markerUnits="userSpaceOnUse" stroke-dasharray="0,0"><path id="SvgjsPath1115" d="M0,0 L20,8 L0,16 L0,0" fill="#6fbef2" stroke="#6fbef2" stroke-width="1"></path></marker><marker id="SvgjsMarker1122" markerWidth="22" markerHeight="18" refX="14" refY="9" viewBox="0 0 22 18" orient="auto" markerUnits="userSpaceOnUse" stroke-dasharray="0,0"><path id="SvgjsPath1123" d="M0,0 L22,9 L0,18 L0,0" fill="#6fbef2" stroke="#6fbef2" stroke-width="1"></path></marker><marker id="SvgjsMarker1126" markerWidth="20" markerHeight="16" refX="13" refY="8" viewBox="0 0 20 16" orient="auto" markerUnits="userSpaceOnUse" stroke-dasharray="0,0"><path id="SvgjsPath1127" d="M0,0 L20,8 L0,16 L0,0" fill="#6fbef2" stroke="#6fbef2" stroke-width="1"></path></marker><marker id="SvgjsMarker1134" markerWidth="16" markerHeight="12" refX="11" refY="6" viewBox="0 0 16 12" orient="auto" markerUnits="userSpaceOnUse" stroke-dasharray="0,0"><path id="SvgjsPath1135" d="M0,0 L16,6 L0,12 L0,0" fill="#f4c18f" stroke="#f4c18f" stroke-width="1"></path></marker><marker id="SvgjsMarker1142" markerWidth="16" markerHeight="12" refX="11" refY="6" viewBox="0 0 16 12" orient="auto" markerUnits="userSpaceOnUse" stroke-dasharray="0,0"><path id="SvgjsPath1143" d="M0,0 L16,6 L0,12 L0,0" fill="#f4c18f" stroke="#f4c18f" stroke-width="1"></path></marker><marker id="SvgjsMarker1150" markerWidth="20" markerHeight="16" refX="13" refY="8" viewBox="0 0 20 16" orient="auto" markerUnits="userSpaceOnUse" stroke-dasharray="0,0"><path id="SvgjsPath1151" d="M0,0 L20,8 L0,16 L0,0" fill="#6fbef2" stroke="#6fbef2" stroke-width="1"></path></marker></defs><rect id="svgbackgroundid" width="674" height="464" fill="transparent"></rect><rect id="SvgjsRect1082" width="674" height="464" fill="url(#pattern_mark_0)"></rect><rect id="SvgjsRect1083" width="674" height="464" fill="url(#pattern_mark_1)"></rect><g id="SvgjsG1084" transform="translate(25,205)"><path id="SvgjsPath1085" d="M 0 4Q 0 0 4 0L 92 0Q 96 0 96 4L 96 50Q 96 54 92 54L 4 54Q 0 54 0 50Z" stroke="rgba(6,142,233,1)" stroke-width="5" fill-opacity="1" fill="#314aa4"></path><g id="SvgjsG1086"><text id="SvgjsText1087" font-family="微软雅黑" text-anchor="middle" font-size="29px" width="76px" fill="#dbf5f5" font-weight="400" align="middle" lineHeight="125%" anchor="middle" family="微软雅黑" size="29px" weight="400" font-style="" opacity="1" y="2.375" transform="rotate(0)"><tspan id="SvgjsTspan1088" dy="36.25" x="48"><tspan id="SvgjsTspan1089" style="">宗教</tspan></tspan></text></g></g><g id="SvgjsG1090" transform="translate(553,205)"><path id="SvgjsPath1091" d="M 0 4Q 0 0 4 0L 92 0Q 96 0 96 4L 96 50Q 96 54 92 54L 4 54Q 0 54 0 50Z" stroke="rgba(6,142,233,1)" stroke-width="5" fill-opacity="1" fill="#314aa4"></path><g id="SvgjsG1092"><text id="SvgjsText1093" font-family="微软雅黑" text-anchor="middle" font-size="29px" width="76px" fill="#dbf5f5" font-weight="400" align="middle" lineHeight="125%" anchor="middle" family="微软雅黑" size="29px" weight="400" font-style="" opacity="1" y="2.375" transform="rotate(0)"><tspan id="SvgjsTspan1094" dy="36.25" x="48"><tspan id="SvgjsTspan1095" style="">仪式</tspan></tspan></text></g></g><g id="SvgjsG1096" transform="translate(289,385)"><path id="SvgjsPath1097" d="M 0 4Q 0 0 4 0L 92 0Q 96 0 96 4L 96 50Q 96 54 92 54L 4 54Q 0 54 0 50Z" stroke="rgba(6,142,233,1)" stroke-width="5" fill-opacity="1" fill="#314aa4"></path><g id="SvgjsG1098"><text id="SvgjsText1099" font-family="微软雅黑" text-anchor="middle" font-size="29px" width="76px" fill="#dbf5f5" font-weight="400" align="middle" lineHeight="125%" anchor="middle" family="微软雅黑" size="29px" weight="400" font-style="" opacity="1" y="2.375" transform="rotate(0)"><tspan id="SvgjsTspan1100" dy="36.25" x="48"><tspan id="SvgjsTspan1101" style="">礼俗</tspan></tspan></text></g></g><g id="SvgjsG1102" transform="translate(289,25)"><path id="SvgjsPath1103" d="M 0 4Q 0 0 4 0L 92 0Q 96 0 96 4L 96 50Q 96 54 92 54L 4 54Q 0 54 0 50Z" stroke="rgba(6,142,233,1)" stroke-width="5" fill-opacity="1" fill="#314aa4"></path><g id="SvgjsG1104"><text id="SvgjsText1105" font-family="微软雅黑" text-anchor="middle" font-size="29px" width="76px" fill="#dbf5f5" font-weight="400" align="middle" lineHeight="125%" anchor="middle" family="微软雅黑" size="29px" weight="400" font-style="" opacity="1" y="2.375" transform="rotate(0)"><tspan id="SvgjsTspan1106" dy="36.25" x="48"><tspan id="SvgjsTspan1107" style="">礼法</tspan></tspan></text></g></g><g id="SvgjsG1108"><path id="SvgjsPath1109" d="M73.59735621569729 261.4275843036994C 96 367 183.12082357706026 412 280.0017188953335 411.8241103715335" stroke-dasharray="8,5" stroke="#6fbef2" stroke-width="5" fill="none" marker-end="url(#SvgjsMarker1110)"></path></g><g id="SvgjsG1112"><path id="SvgjsPath1113" d="M600.5626003106958 261.4614389108399C 585 372 490.87917642293974 411.9999999999999 393.9986322884124 411.8431021416933" stroke-dasharray="8,5" stroke="#6fbef2" stroke-width="5" fill="none" marker-end="url(#SvgjsMarker1114)"></path><rect id="SvgjsRect1116" width="72" height="23" x="533.9412227598614" y="327.8890389274316" fill="#ffffff"></rect><text id="SvgjsText1117" font-family="微软雅黑" text-anchor="middle" font-size="18px" width="72px" fill="#314aa4" font-weight="400" align="top" lineHeight="23px" anchor="middle" family="微软雅黑" size="18px" weight="400" font-style="" opacity="1" y="323.6390389274316" transform="rotate(0)"><tspan id="SvgjsTspan1118" dy="22.5" x="569.9412227598614"><tspan id="SvgjsTspan1119" style="">外在表现</tspan></tspan></text></g><g id="SvgjsG1120"><path id="SvgjsPath1121" d="M73.43788236773662 202.5386469103305C 86 109 183.12082357706026 52 278.7030629309802 52.251171249639924" stroke-dasharray="8,5" stroke="#6fbef2" stroke-width="6" fill="none" marker-end="url(#SvgjsMarker1122)"></path></g><g id="SvgjsG1124"><path id="SvgjsPath1125" d="M600.5458346567343 202.5415993327009C 586 102 490.87917642293974 51.999999999999886 393.9979134394912 52.19378786191237" stroke-dasharray="8,5" stroke="#6fbef2" stroke-width="5" fill="none" marker-end="url(#SvgjsMarker1126)"></path><rect id="SvgjsRect1128" width="72" height="23" x="532.5948817671496" y="115.16511897655225" fill="#ffffff"></rect><text id="SvgjsText1129" font-family="微软雅黑" text-anchor="middle" font-size="18px" width="72px" fill="#314aa4" font-weight="400" align="top" lineHeight="23px" anchor="middle" family="微软雅黑" size="18px" weight="400" font-style="" opacity="1" y="110.91511897655225" transform="rotate(0)"><tspan id="SvgjsTspan1130" dy="22.5" x="568.5948817671496"><tspan id="SvgjsTspan1131" style="">外在表现</tspan></tspan></text></g><g id="SvgjsG1132"><path id="SvgjsPath1133" d="M287.2851004097828 77.8782659435883C 203 145 194.19020419576646 306.5145859508697 284.43846684736434 381.906754158412" stroke-dasharray="8,5" stroke="#f4c18f" stroke-width="3" fill="none" marker-end="url(#SvgjsMarker1134)"></path><rect id="SvgjsRect1136" width="72" height="23" x="200.37081314909892" y="136.875722613722" fill="#ffffff"></rect><text id="SvgjsText1137" font-family="微软雅黑" text-anchor="middle" font-size="18px" width="72px" fill="#827013" font-weight="400" align="top" lineHeight="23px" anchor="middle" family="微软雅黑" size="18px" weight="400" font-style="" opacity="1" y="132.625722613722" transform="rotate(0)"><tspan id="SvgjsTspan1138" dy="22.5" x="236.37081314909892"><tspan id="SvgjsTspan1139" style="">时间转换</tspan></tspan></text></g><g id="SvgjsG1140"><path id="SvgjsPath1141" d="M385.25792075620177 384.45292681798844C 485 337 480 128 388.5679219979629 81.45860070787069" stroke-dasharray="8,5" stroke="#f4c18f" stroke-width="3" fill="none" marker-end="url(#SvgjsMarker1142)"></path><rect id="SvgjsRect1144" width="72" height="23" x="396.76376992861555" y="327.5466642252102" fill="#ffffff"></rect><text id="SvgjsText1145" font-family="微软雅黑" text-anchor="middle" font-size="18px" width="72px" fill="#827013" font-weight="400" align="top" lineHeight="23px" anchor="middle" family="微软雅黑" size="18px" weight="400" font-style="" opacity="1" y="323.2966642252102" transform="rotate(0)"><tspan id="SvgjsTspan1146" dy="22.5" x="432.76376992861555"><tspan id="SvgjsTspan1147" style="">政治转换</tspan></tspan></text></g><g id="SvgjsG1148"><path id="SvgjsPath1149" d="M123.5 232L337 232L337 232L544 232" stroke-dasharray="8,5" stroke="#6fbef2" stroke-width="5" fill="none" marker-end="url(#SvgjsMarker1150)"></path></g></svg>