<?xml version="1.0" standalone="no"?><!DOCTYPE svg PUBLIC "-//W3C//DTD SVG 1.1//EN" "http://www.w3.org/Graphics/SVG/1.1/DTD/svg11.dtd"><svg t="1700660908752" class="icon" viewBox="0 0 1024 1024" version="1.1" xmlns="http://www.w3.org/2000/svg" p-id="11490" xmlns:xlink="http://www.w3.org/1999/xlink" width="200" height="200"><path d="M0 0.049489h1023.919793v1023.919793H0V0.049489z" fill="#202425" opacity=".01" p-id="11491"></path><path d="M921.527814 512.009386c0 226.183882-183.384035 409.567917-409.567918 409.567917S102.391979 738.193268 102.391979 512.009386 285.776014 102.441469 511.959896 102.441469s409.567917 183.384035 409.567918 409.567917z" fill="#FFAA44" p-id="11492"></path><path d="M707.869884 984.992069A511.959896 511.959896 0 0 1 102.391979 819.185324l97.886733-97.886732A375.437257 375.437257 0 1 0 136.522639 512.009386H0a511.959896 511.959896 0 1 1 707.869884 472.982683zM58.261036 726.793628c-21.502316 21.502316-58.261036 6.280041-58.261036-24.130377V512.009386h190.653865c30.376287 0 45.632692 36.758721 24.130377 58.261036l-156.523206 156.523206z" fill="#FF7744" p-id="11493"></path><path d="M511.959896 221.898778A51.19599 51.19599 0 0 1 563.155886 273.094768v217.719478l155.635809 155.635809a51.19599 51.19599 0 0 1-72.356999 72.42526l-170.653299-170.653299A51.19599 51.19599 0 0 1 460.763907 512.009386V273.094768A51.19599 51.19599 0 0 1 511.959896 221.898778z" fill="#FFFFFF" p-id="11494"></path></svg>