<?xml version="1.0" standalone="no"?><!DOCTYPE svg PUBLIC "-//W3C//DTD SVG 1.1//EN" "http://www.w3.org/Graphics/SVG/1.1/DTD/svg11.dtd"><svg t="1700661017037" class="icon" viewBox="0 0 1272 1024" version="1.1" xmlns="http://www.w3.org/2000/svg" p-id="13559" xmlns:xlink="http://www.w3.org/1999/xlink" width="248.4375" height="200"><path d="M1103.212716 195.739104c0-14.36205-7.699243-27.539601-20.136482-34.794657a40.421027 40.421027 0 0 0-40.124902 0c-12.437239 7.106994-20.136482 20.432607-20.136482 34.794657v712.92031c0 18.211671-14.658175 32.869846-32.869846 32.869846H265.327766c-57.744324-0.740312-104.087846-48.12027-103.643658-105.864594-3.553497-52.117954 33.75822-98.017289 85.431987-105.124283h657.396921c10.660491 0 20.876794-4.293809 28.427975-11.696927 7.551181-7.551181 11.696927-17.767484 11.696927-28.427975V40.125554c0.148062-20.876794-15.842674-38.348154-36.571405-40.124903H323.812402c-64.259068-0.148062-126.001077 25.170603-171.752348 70.477688C106.604906 115.785425 80.842054 177.37937 80.545929 241.786501v595.951038c0 5.774432 4.441871 38.644278 4.441871 40.124902 12.141114 81.138179 80.101742 142.436 162.128295 146.137559h742.828909c30.204723 0 59.224948-11.993052 80.545929-33.314033 21.320981-21.320981 33.314033-50.341206 33.314033-80.545929V195.739104h-0.59225z m0 0" fill="#FE555C" p-id="13560"></path><path d="M908.214575 796.132013H346.465945c-14.36205 0-27.539601 7.699243-34.794657 20.136482a40.421027 40.421027 0 0 0 0 40.124903c7.106994 12.437239 20.432607 20.136482 34.794657 20.136482h563.081192c14.36205 0 27.539601-7.699243 34.794657-20.136482a40.421027 40.421027 0 0 0 0-40.124903c-7.106994-12.437239-20.432607-20.136482-34.794657-20.136482h-1.332562z m0 0" fill="#FFD452" p-id="13561"></path></svg>