<?xml version="1.0" standalone="no"?><!DOCTYPE svg PUBLIC "-//W3C//DTD SVG 1.1//EN" "http://www.w3.org/Graphics/SVG/1.1/DTD/svg11.dtd"><svg t="1700660378279" class="icon" viewBox="0 0 1024 1024" version="1.1" xmlns="http://www.w3.org/2000/svg" p-id="5732" xmlns:xlink="http://www.w3.org/1999/xlink" width="200" height="200"><path d="M785.546378 336.837574m-228.717934 0a228.717934 228.717934 0 1 0 457.435868 0 228.717934 228.717934 0 1 0-457.435868 0Z" fill="#744C23" p-id="5733"></path><path d="M596.330859 435.129273a208.643844 184.904264 90 1 0 369.808528 0 208.643844 184.904264 90 1 0-369.808528 0Z" fill="#FBDEB8" p-id="5734"></path><path d="M731.338955 552.9477h99.792336v160.094558h-99.792336z" fill="#FBDEB8" p-id="5735"></path><path d="M781.235123 696.018643c-127.910823 0-231.626955 123.722571-231.626955 282.138138h463.25391c0-158.415568-103.728432-282.138138-231.626955-282.138138z" fill="#FBDEB8" p-id="5736"></path><path d="M705.514474 427.859796a8.425706 8.425706 0 0 0-8.431855-8.438006 8.425706 8.425706 0 1 0 0 16.869862c4.674114 0 8.431856-3.770042 8.431855-8.431856z" fill="#221F20" p-id="5737"></path><path d="M697.082619 439.317526a11.48233 11.48233 0 0 1-11.476181-11.45773 11.47618 11.47618 0 0 1 22.93391 0 11.47003 11.47003 0 0 1-11.457729 11.45773z m0-16.869862c-2.982823 0-5.430583 2.423159-5.430583 5.405982s2.44161 5.405982 5.430583 5.405982a5.405982 5.405982 0 1 0 0-10.811964z" fill="#221F20" p-id="5738"></path><path d="M884.225538 427.859796a8.425706 8.425706 0 0 0-8.438006-8.438006c-4.680264 0-8.438006 3.776192-8.438006 8.438006s3.757742 8.431856 8.438006 8.431856a8.425706 8.425706 0 0 0 8.438006-8.431856z" fill="#221F20" p-id="5739"></path><path d="M875.787532 439.317526a11.47003 11.47003 0 0 1-11.45773-11.45773 11.47618 11.47618 0 0 1 22.93391 0 11.47618 11.47618 0 0 1-11.47618 11.45773z m0-16.869862c-2.982823 0-5.412132 2.423159-5.412133 5.405982a5.412132 5.412132 0 0 0 10.836565 0 5.424432 5.424432 0 0 0-5.424432-5.405982z" fill="#221F20" p-id="5740"></path><path d="M740.927039 550.555291h80.603868s-14.188396 32.263688-40.295784 32.263688c-25.603075 0-40.308084-32.263688-40.308084-32.263688z" fill="#E23C33" p-id="5741"></path><path d="M753.762402 555.696817h54.926991s-9.655736 19.698931-27.44812 19.698931c-17.454126 0.00615-27.478871-19.698931-27.478871-19.698931z" fill="#FFFFFF" p-id="5742"></path><path d="M959.214318 503.371339c-21.69773-2.417009-36.341237-27.263616-32.675747-55.480504 3.647039-28.216889 24.188541-49.176601 45.88627-46.784192 21.685429 2.417009 36.310486 27.239015 32.669597 55.468204-3.653189 28.241489-24.18239 49.176601-45.88012 46.796492zM557.394258 456.574847c-3.659339-28.229189 10.971868-53.051195 32.651147-55.468204 21.70388-2.392408 42.257682 18.567303 45.898571 46.784192 3.659339 28.210739-10.990318 53.063495-32.681898 55.480504-21.70388 2.380108-42.220781-18.555003-45.86782-46.796492z" fill="#FBDEB8" p-id="5743"></path><path d="M599.744192 408.542174s127.166655-42.116228 155.740252-123.372012c53.198799 54.920841 139.134847 96.009994 224.209874 102.873562 6.457658-160.678823-74.429117-263.552384-243.533645-232.285021-122.117381 22.577201-186.066643 147.46215-136.416481 252.783471z" fill="#744C23" p-id="5744"></path><path d="M779.125622 108.113489m-83.986451 0a83.98645 83.98645 0 1 0 167.972901 0 83.98645 83.98645 0 1 0-167.972901 0Z" fill="#744C23" p-id="5745"></path><path d="M890.46794 728.928096c-14.120745 46.968697-57.663808 81.200432-109.232817 81.200433-51.575159 0-95.118222-34.231736-109.245117-81.200433-72.811628 46.956396-122.381838 139.768312-122.381838 249.222535h463.25391c0-109.454222-49.582511-202.266138-122.394138-249.222535z" fill="#DB3D34" p-id="5746"></path><path d="M267.347027 684.093502c-142.246823 0-257.611339 123.71642-257.611339 282.138138h515.222678c-0.00615-158.415568-115.364517-282.138138-257.611339-282.138138z" fill="#FBDEB8" p-id="5747"></path><path d="M524.952216 974.497441v-58.291123c0-124.663544-102.707508-225.70436-229.406751-225.70436h-55.806462c-126.699243 0-229.412901 101.046967-229.412901 225.70436v58.291123h514.626114z" fill="#FFFFFF" p-id="5748"></path><path d="M190.839159 695.760336l80.960577 278.737105 69.558198-279.493573" fill="#FFFFFF" p-id="5749"></path><path d="M281.39397 768.498162l19.342222-20.664504-34.637645-31.052108-23.352121 31.052108 19.336072 20.664504-24.760504 142.166871 34.41624 63.832408 35.20346-59.963964z" fill="#344769" p-id="5750"></path><path d="M63.537201 387.299556a237.020637 208.256384 90 1 0 416.512769 0 237.020637 208.256384 90 1 0-416.512769 0Z" fill="#FBDEB8" p-id="5751"></path><path d="M317.237045 701.110967l-51.138498 15.670583-48.647688-15.670583V578.636877h99.786186z" fill="#FBDEB8" p-id="5752"></path><path d="M190.88221 393.480456a8.425706 8.425706 0 0 0-8.450306-8.425705 8.425706 8.425706 0 0 0-8.431856 8.425705 8.438006 8.438006 0 1 0 16.882162 0z" fill="#221F20" p-id="5753"></path><path d="M182.431904 404.944336a11.46388 11.46388 0 1 1 11.47003-11.47003 11.48233 11.48233 0 0 1-11.47003 11.47003z m0-16.876012a5.412132 5.412132 0 0 0 0 10.824265 5.424432 5.424432 0 0 0 5.418282-5.418283 5.424432 5.424432 0 0 0-5.418282-5.405982z" fill="#221F20" p-id="5754"></path><path d="M369.587123 393.480456a8.425706 8.425706 0 0 0-8.438006-8.425705 8.425706 8.425706 0 1 0 0 16.869862 8.425706 8.425706 0 0 0 8.438006-8.444157z" fill="#221F20" p-id="5755"></path><path d="M361.149117 404.944336a11.47003 11.47003 0 0 1 0-22.921609 11.46388 11.46388 0 0 1 0 22.921609z m0-16.876012a5.418282 5.418282 0 0 0 0 10.824265 5.424432 5.424432 0 0 0 5.418282-5.418283 5.424432 5.424432 0 0 0-5.418282-5.405982z" fill="#221F20" p-id="5756"></path><path d="M271.030967 558.126126c23.862583 0 43.198655-16.550054 43.198655-36.980853H227.850763c0 20.430799 19.317622 36.980853 43.180204 36.980853z" fill="#FFFFFF" p-id="5757"></path><path d="M29.533021 423.573141c-3.253429-32.005381 14.163796-60.64048 38.912-63.992312 24.748204-3.333381 47.442258 19.883435 50.695688 51.876516 3.25958 32.005381-14.176096 60.64048-38.8997 63.992313-24.748204 3.357982-47.448408-19.871135-50.707988-51.876517zM467.651267 475.56036c-24.662102-2.742967-41.316709-30.972156-37.153057-63.039039 4.132901-32.091483 27.497321-55.911015 52.159424-53.174198 24.643652 2.730667 41.273658 30.947556 37.116156 63.039039-4.145201 32.097634-27.472721 55.898715-52.122523 53.174198z" fill="#FBDEB8" p-id="5758"></path><path d="M215.937922 688.035748l50.123724 27.577273 52.589934-27.577273 51.63666 11.297826-43.395459 74.804276-60.831135-56.335376-50.123724 54.398079-51.433706-71.987508s32.337489-12.644709 51.433706-12.177297z" fill="#F1F2F1" p-id="5759"></path><path d="M57.522354 383.572565s12.417153-74.472168 107.215568-83.500589 167.019628-48.524685 188.465201-93.666787c55.296 37.245309 111.729778 82.381261 116.237838 177.167376 41.75952-64.31827 60.468276-229.505153-79.46609-258.84752C265.82179 0.578114 130.752192 52.614535 65.419147 135.303303-31.433417 257.881946 57.522354 383.572565 57.522354 383.572565z" fill="#233546" p-id="5760"></path><path d="M524.318751 709.462871c-142.246823 0-257.611339 123.71642-257.61134 282.138138h515.222679c0.00615-158.415568-115.358366-282.138138-257.611339-282.138138z" fill="#FBDEB8" p-id="5761"></path><path d="M781.93624 999.872961v-58.297273c0-124.651243-102.713658-225.69821-229.406751-225.698211h-55.806462c-126.693093 0-229.412901 101.053117-229.412901 225.698211v58.297273h514.626114z" fill="#2D3D4F" p-id="5762"></path><path d="M447.817033 721.129706l80.954426 278.743255 69.564349-279.499724" fill="#FFFFFF" p-id="5763"></path><path d="M538.377994 793.873682l19.342222-20.670655-34.643796-31.058258-23.35827 31.058258 19.336072 20.670655-24.754354 142.16072 34.41009 63.838559 35.20961-59.970114z" fill="#D93C29" p-id="5764"></path><path d="M359.820685 546.514643s-67.024336-31.833177-84.220156-103.691532c-24.379195-101.920288 2.638414-199.990583 55.72036-191.017513 25.990535 45.86782 40.56639 56.372276 40.56639 56.372276s-22.337345 190.789958-12.066594 238.336769z" fill="#4E4D4D" p-id="5765"></path><path d="M320.508925 412.675075a237.020637 208.262535 90 1 0 416.525069 0 237.020637 208.262535 90 1 0-416.525069 0Z" fill="#FBDEB8" p-id="5766"></path><path d="M574.208769 726.480336l-51.132349 15.664433-48.647687-15.664433V604.006246h99.780036z" fill="#FBDEB8" p-id="5767"></path><path d="M447.847784 418.849826a8.425706 8.425706 0 1 0-16.869862 0 8.425706 8.425706 0 1 0 16.869862 0z" fill="#221F20" p-id="5768"></path><path d="M439.409778 430.307556a11.46388 11.46388 0 0 1 0-22.92161 11.45773 11.45773 0 1 1 0 22.92161z m0-16.869862a5.412132 5.412132 0 1 0 0.01845 10.824264 5.412132 5.412132 0 0 0-0.01845-10.824264z" fill="#221F20" p-id="5769"></path><path d="M626.571147 418.849826a8.425706 8.425706 0 1 0-16.869862 0 8.425706 8.425706 0 1 0 16.869862 0z" fill="#221F20" p-id="5770"></path><path d="M618.126991 430.307556a11.47003 11.47003 0 0 1-11.45158-11.45158c0-6.316204 5.141526-11.47003 11.45158-11.47003 6.328505 0 11.46388 5.147676 11.46388 11.47003a11.47003 11.47003 0 0 1-11.46388 11.45158z m0-16.869862a5.412132 5.412132 0 1 0 0.00615 10.830414 5.412132 5.412132 0 0 0-0.00615-10.830414z" fill="#221F20" p-id="5771"></path><path d="M528.008841 583.495495c23.856432 0 43.204805-16.550054 43.204805-36.980852H484.822486c0 20.430799 19.323772 36.980853 43.186355 36.980852z" fill="#FFFFFF" p-id="5772"></path><path d="M286.510895 448.942511c-3.247279-31.999231 14.169946-60.652781 38.91815-63.992313 24.742054-3.327231 47.442258 19.883435 50.695688 51.882667 3.253429 31.999231-14.176096 60.64048-38.8997 63.986162-24.754354 3.357982-47.454559-19.883435-50.714138-51.876516zM724.622991 500.92973c-24.662102-2.742967-41.316709-30.972156-37.140757-63.045189 4.139051-32.085333 27.491171-55.911015 52.153274-53.174199 24.649802 2.730667 41.273658 30.959856 37.122306 63.05134-4.145201 32.085333-27.478871 55.892565-52.134823 53.168048z" fill="#FBDEB8" p-id="5773"></path><path d="M387.299556 315.80406s-49.182751 88.722066-33.389166 151.496649C315.539604 418.025706 303.817417 346.401057 303.817417 346.401057l29.416169-91.255928 54.06597 60.658931zM659.47445 295.699219s53.094246 108.820757 37.294511 171.59534c38.376937-49.275003 50.099123-120.899652 50.099123-120.899652l-29.416168-91.255928-57.977466 40.56024z" fill="#4E4D4D" p-id="5774"></path><path d="M320.508925 255.138979s-1.285381-150.192817 131.988372-167.12418c96.67421-12.2757 151.096889 83.242282 279.425922 10.492156-1.076276 99.54633-26.21809 206.01158-133.679663 219.830967-107.473874 13.813237-150.488024-18.43815-213.551664 2.423159-17.18352-38.49994-64.182967-65.622102-64.182967-65.622102z" fill="#4E4D4D" p-id="5775"></path><path d="M735.576408 384.63039s51.747363-121.951327-31.759375-180.217849c-58.125069 60.22842-59.256697 83.359135-59.256697 83.359135s52.897441 20.129441 91.016072 96.858714z" fill="#4E4D4D" p-id="5776"></path><path d="M528.771459 999.872961l109.398871-171.164829-33.106258-15.787435 52.663736-15.037117 22.275844-43.961274s-35.849225-27.620324-81.667844-32.835651c-12.331051 48.819892-69.564348 278.786306-69.564349 278.786306zM528.771459 999.872961L419.378739 828.708132l33.106258-15.787435-52.663736-15.037117-23.567375-49.176601s35.541718-21.925285 81.661694-32.829502c12.331051 48.813742 70.85588 283.995483 70.855879 283.995484z" fill="#344769" p-id="5777"></path><path d="M472.921946 713.398967l50.123724 27.583423 52.589934-27.583423 51.63051 11.310126-43.395459 74.791976-60.824985-56.329225-50.123724 54.391928-51.439856-71.981358s32.34364-12.644709 51.439856-12.183447z" fill="#F1F2F1" p-id="5778"></path></svg>